<svg width="26" height="31" viewBox="0 0 26 31" fill="none" xmlns="http://www.w3.org/2000/svg">
<path d="M25.4234 26.2315C20.915 20.7906 17.6496 15.5831 16.9015 12.6414C16.8989 12.6311 16.8952 12.6213 16.8921 12.6111C16.8921 12.61 16.8916 12.6089 16.8912 12.6078C16.4708 11.2636 17.1739 9.80114 17.1807 9.78712C18.2186 7.6879 17.9707 6.75614 17.5388 5.75634C17.4034 5.44343 17.2869 5.17323 17.255 4.81531C17.1564 3.71496 17.7708 1.98194 18.0157 1.40732C18.0795 1.24713 18.0764 1.06902 18.007 0.911033C17.9375 0.75305 17.8073 0.627725 17.6441 0.56183C17.4809 0.495936 17.2977 0.494698 17.1336 0.558382C16.9695 0.622065 16.8375 0.745619 16.7658 0.902649C16.7292 0.988198 15.9615 2.804 15.8963 4.36407C14.8525 4.68986 13.9074 5.26067 13.1445 6.02602C12.3815 5.2608 11.4363 4.69009 10.3925 4.36434C10.3273 2.804 9.55962 0.988461 9.523 0.902912C9.4536 0.742523 9.32169 0.615382 9.15613 0.549301C8.99056 0.483221 8.80481 0.483581 8.63952 0.550303C8.47422 0.617024 8.34284 0.744676 8.2741 0.905333C8.20536 1.06599 8.20487 1.24657 8.27273 1.40758C8.51776 1.98253 9.13237 3.71555 9.03368 4.8159C9.00167 5.17349 8.88477 5.4437 8.74973 5.75694C8.31788 6.75673 8.06994 7.68842 9.10753 9.78706C9.1143 9.80173 9.81785 11.2642 9.3973 12.6084C9.39554 12.614 9.39453 12.6197 9.3929 12.6254C9.39128 12.631 9.38925 12.6363 9.38776 12.642C8.63974 15.5836 5.37434 20.7912 0.865846 26.2321C0.808223 26.3017 0.76576 26.3819 0.74104 26.4679C0.716321 26.5539 0.709862 26.6438 0.722058 26.7324C0.734255 26.8209 0.76485 26.906 0.811982 26.9827C0.859114 27.0593 0.921796 27.1258 0.996213 27.1782C1.08021 27.2374 3.08506 28.6354 5.89682 29.6044C7.63092 30.202 9.29049 30.5 10.8406 30.5C12.6836 30.5 14.372 30.0784 15.8452 29.2377L15.8459 29.2373H15.8465C20.6059 26.508 24.7184 27.2815 24.7576 27.2894C24.8942 27.3172 25.0363 27.3033 25.1645 27.2495C25.2927 27.1958 25.4006 27.1048 25.4735 26.9891C25.5464 26.8734 25.5808 26.7386 25.5718 26.6031C25.5629 26.4677 25.5111 26.3383 25.4235 26.2326L25.4234 26.2315Z" fill="white"/>
</svg>
