<svg width="32" height="33" viewBox="0 0 32 33" fill="none" xmlns="http://www.w3.org/2000/svg">
<path d="M17.2233 16.4147L15.73 14.164L14.2366 16.4147C14.1016 16.621 13.8991 16.7742 13.6638 16.8481C13.4285 16.922 13.1748 16.9121 12.946 16.82L10.8126 15.988L11.794 19.7H19.666L20.594 15.988L18.514 16.82C18.2852 16.9121 18.0315 16.922 17.7962 16.8481C17.5608 16.7742 17.3584 16.621 17.2233 16.4147Z" fill="white"/>
<path d="M15.73 6.9C13.8313 6.9 11.9752 7.46303 10.3965 8.51789C8.81779 9.57275 7.58734 11.0721 6.86074 12.8262C6.13414 14.5804 5.94402 16.5107 6.31444 18.3729C6.68486 20.2351 7.59917 21.9456 8.94176 23.2882C10.2843 24.6308 11.9949 25.5451 13.8571 25.9155C15.7193 26.286 17.6496 26.0958 19.4037 25.3692C21.1579 24.6426 22.6572 23.4122 23.7121 21.8335C24.767 20.2548 25.33 18.3987 25.33 16.5C25.33 13.9539 24.3186 11.5121 22.5182 9.71177C20.7179 7.91143 18.2761 6.9 15.73 6.9ZM23.1966 14.484L21.5646 21.0227C21.5062 21.2593 21.3685 21.4689 21.1745 21.6164C20.9804 21.7639 20.7416 21.8404 20.498 21.8333H10.962C10.7183 21.8404 10.4796 21.7639 10.2855 21.6164C10.0914 21.4689 9.95371 21.2593 9.89531 21.0227L8.26331 14.484C8.21611 14.2937 8.22228 14.094 8.28116 13.907C8.34004 13.7199 8.44934 13.5527 8.59706 13.4237C8.74477 13.2948 8.92518 13.209 9.11847 13.1759C9.31175 13.1428 9.51042 13.1636 9.69265 13.236L12.8926 14.516L14.802 11.6467C14.8996 11.5015 15.0313 11.3825 15.1857 11.3002C15.3401 11.218 15.5124 11.1749 15.6873 11.1749C15.8623 11.1749 16.0345 11.218 16.1889 11.3002C16.3433 11.3825 16.4751 11.5015 16.5726 11.6467L18.482 14.516L21.682 13.236C21.8676 13.1397 22.0774 13.1 22.2854 13.1219C22.4934 13.1439 22.6903 13.2265 22.8517 13.3595C23.0131 13.4925 23.1319 13.67 23.1932 13.8699C23.2545 14.0698 23.2557 14.2834 23.1966 14.484Z" fill="white"/>
<path d="M30.3113 12.2333C30.035 11.7534 29.7857 11.2584 29.5646 10.7507C29.3513 10.2387 29.1913 9.684 29.01 9.108C28.695 7.64939 28.0203 6.29269 27.0473 5.16133C25.916 4.18831 24.5593 3.51362 23.1006 3.19867C22.514 3.01733 21.97 2.85733 21.458 2.644C20.957 2.43127 20.469 2.18907 19.9966 1.91867C18.7171 1.09293 17.2492 0.604859 15.73 0.5C14.2111 0.606686 12.7437 1.09461 11.4633 1.91867C10.9834 2.19499 10.4884 2.44427 9.98065 2.66533C9.46865 2.87867 8.91398 3.03867 8.33798 3.22C6.87937 3.53495 5.52267 4.20964 4.39131 5.18267C3.41829 6.31402 2.7436 7.67072 2.42865 9.12933C2.24731 9.716 2.08731 10.26 1.87398 10.772C1.65915 11.272 1.417 11.7599 1.14865 12.2333C0.324594 13.5137 -0.163334 14.9811 -0.27002 16.5C-0.163334 18.0189 0.324594 19.4863 1.14865 20.7667C1.41338 21.2404 1.65195 21.7282 1.86331 22.228C2.07665 22.74 2.23665 23.2947 2.41798 23.8707C2.73293 25.3293 3.40762 26.686 4.38065 27.8173C5.512 28.7904 6.8687 29.465 8.32731 29.78C8.91398 29.9613 9.45798 30.1213 9.96998 30.3347C10.4767 30.5579 10.9716 30.8071 11.4526 31.0813C12.7353 31.9088 14.2071 32.3969 15.73 32.5C17.2492 32.3951 18.7171 31.9071 19.9966 31.0813C20.4777 30.8071 20.9726 30.5579 21.4793 30.3347C21.9913 30.1213 22.546 29.9613 23.122 29.78C24.5806 29.465 25.9373 28.7904 27.0686 27.8173C28.0417 26.686 28.7164 25.3293 29.0313 23.8707C29.2126 23.284 29.3726 22.74 29.586 22.228C29.807 21.7203 30.0563 21.2253 30.3326 20.7453C31.1458 19.4692 31.6262 18.0096 31.73 16.5C31.6233 14.9811 31.1354 13.5137 30.3113 12.2333ZM15.73 28.2333C13.4093 28.2333 11.1408 27.5452 9.21129 26.2559C7.28175 24.9666 5.77786 23.1341 4.88979 20.9902C4.00173 18.8462 3.76937 16.487 4.2221 14.2109C4.67483 11.9349 5.79233 9.84422 7.43326 8.20328C9.0742 6.56235 11.1649 5.44485 13.4409 4.99212C15.717 4.53939 18.0761 4.77175 20.2201 5.65981C22.3641 6.54788 24.1966 8.05177 25.4859 9.98131C26.7752 11.9108 27.4633 14.1794 27.4633 16.5C27.4633 19.6119 26.2271 22.5963 24.0267 24.7967C21.8263 26.9971 18.8419 28.2333 15.73 28.2333Z" fill="white"/>
</svg>
