<svg width="32" height="33" viewBox="0 0 32 33" fill="none" xmlns="http://www.w3.org/2000/svg">
<path d="M25.0632 9.9532V8.8228L26.558 7.3284C27.3132 6.5728 27.73 5.568 27.73 4.5C27.73 2.2916 25.9408 0.5 23.73 0.5C21.5216 0.5 19.73 2.2916 19.73 4.5H22.3968C22.3968 3.7632 22.9944 3.1664 23.73 3.1664C24.4672 3.1664 25.0632 3.7632 25.0632 4.5C25.0632 4.8688 24.9136 5.2016 24.6724 5.4428L22.3968 7.7184V9.9528C18.614 10.5884 15.73 13.8712 15.73 17.8332H31.73C31.73 13.8712 28.846 10.5884 25.0632 9.9532ZM19.1128 15.1664C20.036 13.5728 21.76 12.5 23.73 12.5C25.7 12.5 27.424 13.5728 28.3472 15.1664H19.1128Z" fill="white"/>
<path d="M6.39638 0.5C4.18838 0.5 2.39638 2.2916 2.39638 4.5C2.39638 6.7084 4.18838 8.5 6.39638 8.5C8.60558 8.5 10.3964 6.7084 10.3964 4.5C10.3964 2.2916 8.60558 0.5 6.39638 0.5Z" fill="white"/>
<path d="M-0.27002 11.1664V24.5H3.72998V32.5H9.06358V24.5H13.0636V11.1664H-0.27002Z" fill="white"/>
</svg>
