<svg width="73" height="74" viewBox="0 0 73 74" fill="none" xmlns="http://www.w3.org/2000/svg">
<path d="M37.8046 73.0664C43.387 72.2717 48.2806 66.4337 51.36 57.812C46.9085 56.813 42.3658 56.2769 37.8046 56.213V73.0664Z" fill="#7C3232"/>
<path d="M46.7231 71.6953C47.0531 71.5996 47.3818 71.5032 47.7079 71.3972C47.9831 71.3085 48.2545 71.2127 48.5259 71.1176C48.847 71.0066 49.1667 70.8923 49.4853 70.771C49.7566 70.6676 50.0255 70.5578 50.2949 70.4481C50.6058 70.3172 50.916 70.187 51.2231 70.0561C51.4913 69.938 51.7575 69.8142 52.0238 69.6897C52.3251 69.5474 52.6252 69.4025 52.9227 69.2518C53.1839 69.1184 53.4444 68.9825 53.7056 68.8427C53.998 68.6857 54.2885 68.5255 54.577 68.3608C54.8382 68.2127 55.0899 68.0639 55.344 67.9108C55.6269 67.7365 55.9084 67.5622 56.1881 67.388C56.4385 67.2284 56.6882 67.0663 56.9347 66.899C57.2099 66.7133 57.4813 66.5199 57.7514 66.3265C57.9941 66.1522 58.2355 65.9786 58.4725 65.8037C58.7337 65.602 59.0012 65.3932 59.2631 65.1839C59.4956 64.9981 59.7275 64.8137 59.9561 64.6228C60.2167 64.4058 60.4664 64.1811 60.7193 63.9564C60.941 63.7592 61.164 63.5638 61.3806 63.3615C61.6296 63.1285 61.8723 62.8872 62.115 62.6479C62.3253 62.4398 62.538 62.2349 62.7438 62.0217C62.782 61.9821 62.8183 61.9393 62.8578 61.8985C60.0122 60.4259 57.015 59.2699 53.9184 58.4516C52.3079 63.5977 49.4419 68.2612 45.5803 72.0183C45.686 71.9908 45.7917 71.9685 45.8975 71.9411C46.1765 71.8625 46.4504 71.7764 46.7231 71.6953Z" fill="#7C3232"/>
<path d="M73 37.8737H57.3571C57.2978 43.9938 56.4117 50.0776 54.7229 55.9596C58.1667 56.8813 61.4901 58.2065 64.6243 59.9076C69.7703 53.693 72.7159 45.9445 73 37.8737Z" fill="#7C3232"/>
<path d="M37.8046 35.2591H54.7478C54.6815 29.3554 53.8171 23.488 52.1793 17.8166C47.4614 18.8947 42.6429 19.4705 37.8046 19.5343V35.2591Z" fill="#7C3232"/>
<path d="M37.8046 0.0664062V16.9198C42.3658 16.8553 46.9085 16.3198 51.36 15.3208C48.2806 6.69911 43.387 0.861106 37.8046 0.0664062Z" fill="#7C3232"/>
<path d="M37.8046 53.5985C42.6429 53.663 47.4614 54.2387 52.1793 55.3168C53.8171 49.6454 54.6815 43.7774 54.7478 37.8737H37.8046V53.5985Z" fill="#7C3232"/>
<path d="M64.6243 13.2252C61.4901 14.9263 58.1667 16.2515 54.7229 17.1732C56.4117 23.0552 57.2978 29.139 57.3571 35.2591H73C72.7152 27.189 69.7696 19.4405 64.6243 13.2252Z" fill="#7C3232"/>
<path d="M62.8616 11.242C62.8234 11.203 62.7871 11.1609 62.7495 11.1207C62.5431 10.9075 62.3291 10.702 62.1189 10.4945C61.8768 10.2552 61.6354 10.0132 61.3856 9.78089C61.1697 9.57918 60.9461 9.38833 60.7244 9.18726C60.4715 8.96257 60.2186 8.73597 59.9587 8.51894C59.7332 8.32809 59.5019 8.14553 59.2726 7.96233C59.0114 7.75041 58.7439 7.53977 58.475 7.33743C58.2393 7.15934 58.0005 6.98699 57.7603 6.81465C57.4876 6.61805 57.2137 6.42209 56.936 6.23506C56.692 6.07038 56.4442 5.90952 56.1964 5.75186C55.9142 5.56994 55.6326 5.39185 55.3453 5.2195C55.0937 5.06822 54.8395 4.91886 54.5847 4.77396C54.2929 4.60672 54.0005 4.44459 53.7056 4.28629C53.4444 4.15544 53.1839 4.01309 52.9227 3.88224C52.6226 3.73032 52.32 3.58415 52.0098 3.44053C51.7486 3.31606 51.4836 3.19478 51.2148 3.07669C50.9058 2.93945 50.5937 2.81562 50.2822 2.68477C50.0134 2.57498 49.7458 2.46646 49.4744 2.36306C49.1578 2.24178 48.8368 2.12816 48.5157 2.01709C48.2443 1.92134 47.9729 1.82623 47.6977 1.73687C47.3716 1.63091 47.0454 1.53453 46.7103 1.4375C46.439 1.35771 46.1663 1.27665 45.8918 1.20388C45.7866 1.17516 45.6796 1.15281 45.5739 1.12537C49.4356 4.88248 52.3009 9.54535 53.912 14.6921C57.0118 13.8737 60.0135 12.7171 62.8616 11.242Z" fill="#7C3232"/>
<path d="M0 35.2591H15.6429C15.7022 29.139 16.5883 23.0552 18.2764 17.1732C14.8333 16.2521 11.5099 14.927 8.37569 13.2252C3.22975 19.4398 0.284116 27.189 0 35.2591Z" fill="#7C3232"/>
<path d="M35.1954 73.0664V56.213C30.6342 56.2775 26.0915 56.813 21.64 57.812C24.7187 66.4337 29.6131 72.2717 35.1954 73.0664Z" fill="#7C3232"/>
<path d="M35.1954 37.8737H18.2522C18.3185 43.7774 19.1823 49.6454 20.8207 55.3168C25.5386 54.2381 30.3565 53.6623 35.1954 53.5985V37.8737Z" fill="#7C3232"/>
<path d="M35.1954 0.0664062C29.6131 0.861106 24.7187 6.69911 21.64 15.3208C26.0915 16.3204 30.6342 16.8559 35.1954 16.9198V0.0664062Z" fill="#7C3232"/>
<path d="M35.1954 19.5343C30.3571 19.4705 25.5386 18.8947 20.8207 17.8166C19.1823 23.488 18.3185 29.3554 18.2522 35.2591H35.1954V19.5343Z" fill="#7C3232"/>
<path d="M27.4159 1.12409C27.3102 1.15154 27.2044 1.17388 27.0987 1.20133C26.8222 1.27537 26.5496 1.35771 26.2744 1.4375C25.9469 1.53325 25.622 1.62963 25.2933 1.73432C25.0162 1.82432 24.7436 1.92007 24.4709 2.01518C24.1518 2.12816 23.832 2.2405 23.516 2.3605C23.2434 2.46519 22.9745 2.5737 22.7044 2.68477C22.3942 2.81562 22.0833 2.94647 21.7769 3.07669C21.5081 3.19478 21.2425 3.31861 20.9762 3.44308C20.6749 3.58542 20.3748 3.73032 20.0773 3.88096C19.8161 4.01437 19.555 4.15097 19.2944 4.29012C19.002 4.44715 18.7122 4.608 18.4242 4.77269C18.163 4.91886 17.9063 5.06886 17.6547 5.22206C17.3712 5.39313 17.0909 5.56994 16.8119 5.74484C16.5609 5.90569 16.3118 6.06782 16.0653 6.23506C15.7901 6.42081 15.5187 6.61422 15.2486 6.80763C15.0059 6.98189 14.7645 7.15551 14.5269 7.33104C14.26 7.53211 14.0051 7.74148 13.7363 7.95021C13.5044 8.13595 13.2706 8.32043 13.0439 8.51256C12.7827 8.72831 12.5349 8.95172 12.2832 9.17513C12.0603 9.37428 11.8354 9.56769 11.6175 9.77387C11.3697 10.0056 11.1283 10.2462 10.8862 10.4849C10.676 10.693 10.462 10.8986 10.2556 11.1124C10.218 11.152 10.1817 11.1954 10.1422 11.2356C12.9872 12.7088 15.985 13.8648 19.0816 14.6831C20.6921 9.53961 23.5562 4.87928 27.4159 1.12409Z" fill="#7C3232"/>
<path d="M10.8805 62.6383C11.1232 62.8777 11.3646 63.1196 11.6137 63.3526C11.8303 63.5536 12.0533 63.7445 12.2756 63.9456C12.5285 64.1709 12.7814 64.3968 13.0413 64.6139C13.2668 64.8034 13.4968 64.9866 13.7274 65.1705C13.9886 65.3824 14.2491 65.593 14.5256 65.7967C14.7607 65.9735 14.9995 66.1445 15.2384 66.3201C15.5111 66.516 15.7863 66.712 16.064 66.9003C16.308 67.065 16.5558 67.2258 16.8036 67.3841C17.0858 67.5654 17.3674 67.7435 17.6547 67.9159C17.9063 68.0678 18.1605 68.2165 18.4153 68.362C18.7071 68.5293 18.9995 68.6914 19.2944 68.8491C19.555 68.9799 19.8161 69.1223 20.0773 69.2531C20.3774 69.405 20.68 69.5512 20.9902 69.6955C21.2514 69.8187 21.5164 69.9399 21.7852 70.0587C22.0942 70.1959 22.4057 70.3197 22.7178 70.4506C22.9867 70.5604 23.2542 70.6689 23.5256 70.7723C23.8422 70.8942 24.1632 71.0078 24.4843 71.1189C24.7557 71.214 25.0271 71.3098 25.3023 71.3985C25.6284 71.5044 25.9546 71.6015 26.2897 71.6979C26.561 71.7776 26.8337 71.8587 27.1076 71.9321C27.2134 71.9608 27.3204 71.9832 27.4261 72.0106C23.5644 68.2529 20.6991 63.59 19.088 58.4433C15.9914 59.2623 12.9935 60.4182 10.1486 61.8921C10.1868 61.931 10.2231 61.9732 10.2613 62.0134C10.4569 62.2253 10.6677 62.4308 10.8805 62.6383Z" fill="#7C3232"/>
<path d="M8.37569 59.9076C11.5099 58.2065 14.8333 56.8813 18.2764 55.9596C16.5883 50.0776 15.7022 43.9938 15.6429 37.8737H0C0.284753 45.9439 3.22975 53.6923 8.37569 59.9076Z" fill="#7C3232"/>
</svg>
