<svg width="113" height="29" viewBox="0 0 113 29" fill="none" xmlns="http://www.w3.org/2000/svg">
<path d="M26.9359 28.1741H19.7895L10.7752 15.7094C10.2828 15.753 9.7615 15.7748 9.21122 15.7748C8.97953 15.7748 8.75507 15.7748 8.53786 15.7748C8.33513 15.7603 8.13239 15.7457 7.92966 15.7312V23.4671C7.92966 24.5567 8.01655 25.3848 8.19032 25.9513C8.37857 26.5179 8.75507 26.9029 9.31983 27.1063C9.88458 27.3097 10.7245 27.4114 11.8395 27.4114V28.1741H0.414062V27.4114C1.55806 27.4114 2.39795 27.3097 2.93374 27.1063C3.46954 26.9029 3.80984 26.5179 3.95465 25.9513C4.11394 25.3848 4.19358 24.5567 4.19358 23.4671V6.16482C4.19358 5.0462 4.11394 4.20361 3.95465 3.63703C3.80984 3.05593 3.46954 2.66369 2.93374 2.4603C2.39795 2.25691 1.55806 2.15522 0.414062 2.15522V1.4579H10.4493C11.6078 1.4579 12.8097 1.53054 14.0551 1.67581C15.3149 1.82109 16.4806 2.12617 17.5522 2.59105C18.6383 3.05593 19.5144 3.74599 20.1805 4.66122C20.8466 5.56193 21.1797 6.77498 21.1797 8.30037C21.1797 10.3342 20.557 11.8887 19.3117 12.9637C18.0663 14.0242 16.5168 14.7506 14.6633 15.1428L20.0936 22.857C21.0639 24.208 22.0196 25.2685 22.9609 26.0385C23.9021 26.7939 25.2271 27.2516 26.9359 27.4114V28.1741ZM16.792 8.60545C16.792 6.8912 16.2562 5.51835 15.1846 4.48689C14.1275 3.45544 12.7446 2.93971 11.0358 2.93971C10.529 2.93971 10.0149 2.97603 9.4936 3.04867C8.98677 3.1213 8.46545 3.2012 7.92966 3.28837V14.3584C8.17584 14.4019 8.55234 14.4237 9.05917 14.4237C10.3335 14.4237 11.5571 14.2494 12.7301 13.9007C13.9175 13.5376 14.8877 12.9347 15.6407 12.0921C16.4082 11.2495 16.792 10.0873 16.792 8.60545Z" fill="white"/>
<path d="M42.6839 21.1573L43.2703 21.5931C43.0966 22.8279 42.6766 23.9974 42.0105 25.1015C41.3444 26.191 40.49 27.0772 39.4474 27.76C38.4048 28.4428 37.2246 28.7842 35.9068 28.7842C34.1836 28.7842 32.7355 28.3266 31.5625 27.4114C30.404 26.4816 29.528 25.2976 28.9342 23.8594C28.3405 22.4066 28.0437 20.8958 28.0437 19.3268C28.0437 17.598 28.3478 15.9927 28.956 14.5109C29.5642 13.0291 30.4837 11.8378 31.7146 10.9371C32.9454 10.0364 34.5021 9.58606 36.3847 9.58606C38.5568 9.58606 40.2438 10.2834 41.4458 11.678C42.6621 13.0581 43.2703 14.8087 43.2703 16.9297H30.8457C30.8457 18.2227 31.0774 19.5374 31.5408 20.874C32.0042 22.196 32.721 23.3001 33.6912 24.1862C34.6614 25.0724 35.8996 25.5155 37.4056 25.5155C38.7813 25.5155 39.8818 25.1015 40.7072 24.2734C41.5471 23.4308 42.206 22.3921 42.6839 21.1573ZM30.8457 15.7966H39.165C39.165 14.9976 39.0274 14.2349 38.7523 13.5085C38.4916 12.7676 38.0717 12.1647 37.4925 11.6998C36.9277 11.2349 36.1892 11.0025 35.2769 11.0025C33.9302 11.0025 32.8803 11.4964 32.1273 12.4843C31.3743 13.4722 30.9471 14.5763 30.8457 15.7966Z" fill="white"/>
<path d="M64.6876 21.3316C64.6876 22.8715 64.2894 24.208 63.493 25.3412C62.6965 26.4598 61.6611 27.3242 60.3868 27.9344C59.127 28.53 57.773 28.8278 56.3249 28.8278C55.3836 28.8278 54.4424 28.6971 53.5011 28.4356C52.5743 28.1741 51.7272 27.9126 50.9597 27.6511C50.2067 27.3896 49.6057 27.2588 49.1568 27.2588C48.7224 27.2588 48.4183 27.4332 48.2445 27.7818C48.0853 28.1305 47.9839 28.4791 47.9404 28.8278H47.2236V19.5883H47.9404C48.2156 21.8691 49.012 23.7214 50.3298 25.1451C51.662 26.5542 53.5156 27.2588 55.8905 27.2588C56.7448 27.2588 57.5775 27.099 58.3884 26.7794C59.1994 26.4453 59.8655 25.9513 60.3868 25.2976C60.9081 24.6439 61.1688 23.8303 61.1688 22.857C61.1688 21.8255 60.8285 20.9248 60.1479 20.1549C59.4673 19.3849 58.5912 18.6803 57.5196 18.0411C56.448 17.3874 55.304 16.7409 54.0876 16.1017C52.8857 15.4625 51.7489 14.7651 50.6773 14.0097C49.6057 13.2543 48.7297 12.3826 48.049 11.3947C47.3684 10.4069 47.0281 9.2374 47.0281 7.88634C47.0281 6.41906 47.3902 5.16242 48.1142 4.11644C48.8383 3.07046 49.7868 2.27144 50.9597 1.71939C52.1327 1.15282 53.3997 0.869533 54.761 0.869533C55.5574 0.869533 56.3539 0.993017 57.1503 1.23999C57.9468 1.48695 58.6708 1.74119 59.3224 2.00268C59.9886 2.24965 60.5171 2.37313 60.9081 2.37313C61.3136 2.37313 61.6104 2.1988 61.7987 1.85014C61.9869 1.48695 62.1173 1.16008 62.1897 0.869533H62.9499V10.0873H62.1897C62.0738 8.69262 61.7118 7.41419 61.1036 6.25199C60.5099 5.08979 59.6845 4.16002 58.6274 3.4627C57.5847 2.76538 56.3104 2.41672 54.8044 2.41672C54.0224 2.41672 53.2694 2.58378 52.5454 2.91792C51.8358 3.25205 51.2493 3.7242 50.7859 4.33435C50.337 4.94451 50.1126 5.66362 50.1126 6.49169C50.1126 7.46504 50.4601 8.32216 51.1552 9.06307C51.8648 9.80397 52.7698 10.4868 53.8704 11.1115C54.9854 11.7361 56.1584 12.3681 57.3892 13.0073C58.6346 13.632 59.8076 14.3293 60.9081 15.0993C62.0231 15.8547 62.9282 16.7336 63.6233 17.736C64.3328 18.7384 64.6876 19.9369 64.6876 21.3316Z" fill="white"/>
<path d="M84.6713 24.426V25.5591C84.1789 26.2274 83.5707 26.8956 82.8467 27.5639C82.1227 28.2176 81.3045 28.5445 80.3922 28.5445C79.5523 28.5445 78.9948 28.2249 78.7196 27.5857C78.4445 26.9465 78.3069 26.2709 78.3069 25.5591C77.4381 26.2564 76.5547 26.932 75.6569 27.5857C74.7591 28.2249 73.7237 28.5445 72.5508 28.5445C71.1896 28.5445 70.1325 28.1014 69.3794 27.2152C68.6409 26.3145 68.2717 25.2032 68.2717 23.8812C68.2717 22.7916 68.6264 21.8328 69.336 21.0047C70.0456 20.1621 70.9361 19.4357 72.0077 18.8256C73.0938 18.2154 74.2016 17.6997 75.3311 17.2784C76.4751 16.8571 77.467 16.5084 78.3069 16.2324V15.4915C78.3069 14.678 78.2273 13.9153 78.068 13.2034C77.9087 12.477 77.5901 11.8887 77.1123 11.4383C76.6344 10.988 75.9103 10.7628 74.9401 10.7628C73.7527 10.7628 73.0142 11.0824 72.7245 11.7216C72.4349 12.3463 72.2901 13.1526 72.2901 14.1404C72.2901 14.7215 72.1743 15.1792 71.9426 15.5133C71.7109 15.8474 71.2692 16.0145 70.6176 16.0145C70.0094 16.0145 69.5822 15.8402 69.336 15.4915C69.0898 15.1428 68.9667 14.6925 68.9667 14.1404C68.9667 13.0509 69.3288 12.172 70.0528 11.5037C70.7769 10.8354 71.6457 10.3488 72.6594 10.0437C73.6875 9.7386 74.6505 9.58606 75.5483 9.58606C77.8218 9.58606 79.393 10.0509 80.2619 10.9807C81.1307 11.9105 81.5651 13.5012 81.5651 15.753V21.8982C81.5651 22.4066 81.5651 22.9805 81.5651 23.6197C81.5796 24.2444 81.6158 24.7238 81.6737 25.0579C81.7027 25.3049 81.7824 25.53 81.9127 25.7334C82.043 25.9368 82.2457 26.0385 82.5209 26.0385C82.7236 26.0385 82.9698 25.9296 83.2594 25.7116C83.549 25.4937 83.8242 25.2613 84.0848 25.0143C84.36 24.7528 84.5555 24.5567 84.6713 24.426ZM78.3069 24.2516V17.3438C77.4236 17.6779 76.4534 18.0992 75.3963 18.6077C74.3536 19.1161 73.4558 19.7336 72.7028 20.4599C71.9498 21.1718 71.5733 22.0071 71.5733 22.9659C71.5733 23.7504 71.8195 24.4913 72.3118 25.1886C72.8042 25.886 73.492 26.2346 74.3754 26.2346C75.056 26.2346 75.7438 26.0167 76.4389 25.5809C77.1485 25.1305 77.7711 24.6874 78.3069 24.2516Z" fill="white"/>
<path d="M95.0758 28.1741H86.2135V27.4114C87.4589 27.4114 88.2191 27.1281 88.4943 26.5615C88.7694 25.9804 88.907 25.1596 88.907 24.0991V5.9687C88.907 5.09705 88.8273 4.34162 88.668 3.7024C88.5232 3.04867 88.1178 2.7218 87.4516 2.7218C87.2489 2.7218 87.0462 2.75085 86.8434 2.80896C86.6552 2.85254 86.4452 2.91065 86.2135 2.98329L85.9094 2.30776L91.2963 0.172211H92.1652V24.0991C92.1652 25.3049 92.3245 26.162 92.643 26.6705C92.9616 27.1644 93.7726 27.4114 95.0758 27.4114V28.1741Z" fill="white"/>
<path d="M112.062 21.1573L112.648 21.5931C112.475 22.8279 112.055 23.9974 111.389 25.1015C110.722 26.191 109.868 27.0772 108.825 27.76C107.783 28.4428 106.603 28.7842 105.285 28.7842C103.562 28.7842 102.114 28.3266 100.941 27.4114C99.7821 26.4816 98.906 25.2976 98.3123 23.8594C97.7186 22.4066 97.4217 20.8958 97.4217 19.3268C97.4217 17.598 97.7258 15.9927 98.334 14.5109C98.9422 13.0291 99.8618 11.8378 101.093 10.9371C102.324 10.0364 103.88 9.58606 105.763 9.58606C107.935 9.58606 109.622 10.2834 110.824 11.678C112.04 13.0581 112.648 14.8087 112.648 16.9297H100.224C100.224 18.2227 100.455 19.5374 100.919 20.874C101.382 22.196 102.099 23.3001 103.069 24.1862C104.04 25.0724 105.278 25.5155 106.784 25.5155C108.159 25.5155 109.26 25.1015 110.085 24.2734C110.925 23.4308 111.584 22.3921 112.062 21.1573ZM100.224 15.7966H108.543C108.543 14.9976 108.406 14.2349 108.13 13.5085C107.87 12.7676 107.45 12.1647 106.871 11.6998C106.306 11.2349 105.567 11.0025 104.655 11.0025C103.308 11.0025 102.258 11.4964 101.505 12.4843C100.752 13.4722 100.325 14.5763 100.224 15.7966Z" fill="white"/>
</svg>
