<svg width="64" height="64" viewBox="0 0 64 64" fill="none" xmlns="http://www.w3.org/2000/svg">
<path d="M39.0999 50.1944H29.1388L16.5738 32.8201C15.8875 32.8809 15.1608 32.9112 14.3938 32.9112C14.0709 32.9112 13.758 32.9112 13.4552 32.9112C13.1726 32.891 12.8901 32.8707 12.6075 32.8505V43.6335C12.6075 45.1522 12.7286 46.3064 12.9708 47.0962C13.2332 47.8859 13.758 48.4225 14.5452 48.706C15.3324 48.9895 16.5031 49.1313 18.0574 49.1313V50.1944H2.13159V49.1313C3.72619 49.1313 4.8969 48.9895 5.64374 48.706C6.39057 48.4225 6.86491 47.8859 7.06676 47.0962C7.28879 46.3064 7.39981 45.1522 7.39981 43.6335V19.516C7.39981 17.9568 7.28879 16.7823 7.06676 15.9926C6.86491 15.1826 6.39057 14.6359 5.64374 14.3524C4.8969 14.0689 3.72619 13.9271 2.13159 13.9271V12.9551H16.1196C17.7344 12.9551 19.4097 13.0564 21.1456 13.2589C22.9017 13.4614 24.5266 13.8866 26.0202 14.5346C27.5341 15.1826 28.7553 16.1445 29.6838 17.4202C30.6123 18.6757 31.0765 20.3665 31.0765 22.4927C31.0765 25.3277 30.2086 27.4944 28.4727 28.9929C26.7368 30.4711 24.577 31.4836 21.9934 32.0304L29.5627 42.783C30.915 44.6662 32.2472 46.1444 33.5592 47.2177C34.8712 48.2707 36.7181 48.9085 39.0999 49.1313V50.1944ZM24.9605 22.918C24.9605 20.5285 24.2137 18.6149 22.72 17.1772C21.2465 15.7395 19.3189 15.0206 16.9371 15.0206C16.2306 15.0206 15.5141 15.0712 14.7874 15.1725C14.081 15.2737 13.3543 15.3851 12.6075 15.5066V30.9369C12.9506 30.9976 13.4754 31.028 14.1819 31.028C15.9581 31.028 17.6637 30.785 19.2987 30.299C20.9539 29.7928 22.3062 28.9524 23.3558 27.7779C24.4256 26.6034 24.9605 24.9835 24.9605 22.918Z" fill="black"/>
<path d="M61.0508 40.4138L61.8683 41.0213C61.6261 42.7425 61.0408 44.3726 60.1123 45.9116C59.1838 47.4303 57.9929 48.6655 56.5396 49.6173C55.0863 50.569 53.4412 51.0449 51.6044 51.0449C49.2024 51.0449 47.1839 50.407 45.549 49.1313C43.9342 47.8353 42.713 46.1849 41.8854 44.1802C41.0579 42.1552 40.6441 40.0493 40.6441 37.8623C40.6441 35.4526 41.068 33.215 41.9157 31.1495C42.7635 29.084 44.0452 27.4236 45.7609 26.1681C47.4766 24.9126 49.6465 24.2848 52.2705 24.2848C55.2982 24.2848 57.6497 25.2568 59.3251 27.2008C61.0206 29.1245 61.8683 31.5646 61.8683 34.5211H44.5498C44.5498 36.3233 44.8728 38.1559 45.5187 40.0189C46.1646 41.8616 47.1637 43.4006 48.5161 44.6358C49.8685 45.8711 51.5943 46.4887 53.6935 46.4887C55.6111 46.4887 57.1451 45.9116 58.2956 44.7573C59.4663 43.5828 60.3847 42.135 61.0508 40.4138ZM44.5498 32.9416H56.146C56.146 31.8279 55.9542 30.7648 55.5707 29.7523C55.2074 28.7195 54.622 27.8792 53.8146 27.2312C53.0274 26.5832 51.998 26.2592 50.7264 26.2592C48.8492 26.2592 47.3858 26.9477 46.3362 28.3247C45.2866 29.7017 44.6911 31.2406 44.5498 32.9416Z" fill="black"/>
</svg>
