<svg width="33" height="27" viewBox="0 0 33 27" fill="none" xmlns="http://www.w3.org/2000/svg">
<path d="M30.8776 20.5675L15.3259 8.80877C14.7274 8.3562 14.3759 7.65105 14.3759 6.90275V5.49552C14.3759 4.60944 15.0974 3.89121 15.9873 3.89121C16.8772 3.89121 17.5987 4.60952 17.5987 5.49552V7.07006H20.804V5.49552C20.804 2.84702 18.6475 0.700012 15.9873 0.700012C13.3271 0.700012 11.1706 2.84702 11.1706 5.49552V6.90275C11.1706 8.64871 11.9907 10.2942 13.3873 11.3501L28.9391 23.1088H3.34985L12.6669 15.9049L10.7009 13.3845L1.38378 20.5884C0.601962 21.193 0.144531 22.1233 0.144531 23.1088C0.144531 24.8712 1.57955 26.3 3.34985 26.3H28.9391C29.9412 26.3 30.8856 25.8334 31.4917 25.0389C32.5623 23.6353 32.2874 21.6334 30.8776 20.5675Z" fill="white"/>
</svg>
