<svg width="64" height="51" viewBox="0 0 64 51" fill="none" xmlns="http://www.w3.org/2000/svg">
<path fill-rule="evenodd" clip-rule="evenodd" d="M22.8128 0.483728C21.3258 0.7844 19.5859 1.77942 18.6094 2.88763C18.3088 3.22878 17.2191 4.76375 16.1878 6.29861L14.3128 9.08917L10.6254 9.09421C6.38202 9.10012 5.75527 9.18451 4.14253 9.96683C2.27929 10.8708 0.880803 12.5287 0.290932 14.533L0.000433586 15.5203V29.9358C0.000433586 45.906 -0.0463161 44.9603 0.831053 46.7285C1.39667 47.8686 2.71467 49.2181 3.88803 49.8585C4.3419 50.1063 5.1524 50.4195 5.68927 50.5547C6.64914 50.7963 7.08664 50.8004 32.0002 50.8004C56.9138 50.8004 57.3513 50.7963 58.3112 50.5547C60.964 49.8869 63.1256 47.7368 63.8106 45.0847C63.9745 44.4502 64 42.4086 64 29.9358V15.5203L63.7095 14.533C63.1196 12.5287 61.7211 10.8708 59.8579 9.96683C58.2453 9.18451 57.6184 9.10012 53.3751 9.09421L49.6876 9.08905L47.7167 6.16451C46.6327 4.55596 45.4445 2.93795 45.0763 2.56899C44.3055 1.79689 43.3581 1.20502 42.1554 0.744541L41.3127 0.421847L32.3127 0.402286C27.3627 0.39146 23.0878 0.428121 22.8128 0.483728ZM35.5002 11.1235C40.5887 12.2305 44.8234 15.4102 47.2495 19.946C49.1322 23.4657 49.6556 27.8391 48.6675 31.7931C47.867 34.9958 45.8879 38.1607 43.3126 40.3561C40.0899 43.1035 36.2382 44.5218 32.0002 44.5218C27.7401 44.5218 23.8319 43.0747 20.6639 40.3241C15.8368 36.1328 13.8417 29.8531 15.335 23.5505C15.7285 21.8894 16.5523 20.0213 17.5439 18.5415C20.2988 14.4308 24.2664 11.8725 29.2502 10.9933C30.5212 10.7691 34.2257 10.8463 35.5002 11.1235ZM56.0353 15.5387C56.5218 15.7436 57.0612 16.29 57.242 16.7614C57.582 17.6468 57.2394 18.7876 56.4717 19.3265C56.0886 19.5955 55.9293 19.6161 53.9627 19.6525C51.8915 19.6911 51.8553 19.6871 51.3063 19.3705C50.958 19.1696 50.6562 18.8691 50.4998 18.5676C50.2072 18.0029 50.1731 17.1014 50.4265 16.6242C50.6532 16.197 51.2258 15.6635 51.6251 15.5072C52.122 15.3127 55.5571 15.3373 56.0353 15.5387ZM30.6877 18.2784C26.0534 19.0131 22.64 22.6855 22.4089 27.1853C22.2463 30.3533 23.4855 33.0765 25.99 35.0549C26.8919 35.7672 28.4574 36.5416 29.6252 36.8531C30.609 37.1155 33.2678 37.1529 34.1252 36.9163C37.6624 35.9405 40.1339 33.6782 41.2007 30.4398C41.8329 28.5208 41.7255 25.9888 40.9304 24.063C39.8575 21.4643 37.4238 19.3498 34.6028 18.5653C33.6988 18.3138 31.4867 18.1518 30.6877 18.2784Z" fill="#C8C8C8"/>
</svg>
