<svg width="92" height="91" viewBox="0 0 92 91" fill="none" xmlns="http://www.w3.org/2000/svg">
<path d="M87.8044 31.4762H85.2987L85.5462 22.7904L74.6937 16.9604L68.8319 6.16684L56.5023 6.51442L45.9993 0.0820312L35.4964 6.51424L23.1668 6.16666L17.305 16.9602L6.45252 22.7902L6.70013 31.476H4.19434C1.97303 31.476 0.166016 33.2733 0.166016 35.4824V55.5146C0.166016 57.7237 1.97303 59.5211 4.19434 59.5211H6.70013L6.45252 68.2069L17.305 74.0368L23.167 84.8304L35.4965 84.4828L45.9993 90.9154L56.5022 84.4832L68.8317 84.8307L74.6935 74.0372L85.546 68.2072L85.2986 59.5214H87.8044C90.0255 59.5214 91.8327 57.724 91.8327 55.515V35.4828C91.8327 33.2735 90.0255 31.4762 87.8044 31.4762ZM9.1839 24.3588L19.2868 18.9312L24.7438 8.8832L36.2218 9.20675L45.9993 3.21881L55.7769 9.20692L67.2546 8.88338L72.7118 18.9314L82.8146 24.3589L82.6119 31.4763H76.4694C70.9794 19.6835 59.117 12.1117 45.9993 12.1117C39.9058 12.1117 33.9375 13.7534 28.7393 16.8592L30.1224 19.1486C34.9028 16.2924 40.393 14.7826 45.9993 14.7826C57.6462 14.7826 68.2176 21.2708 73.4822 31.4762H18.5165C20.7452 27.1633 23.9813 23.418 27.9654 20.5622L26.395 18.3952C21.695 21.7644 17.9553 26.2745 15.5315 31.4762H9.38675L9.1839 24.3588ZM82.8148 66.6386L72.7119 72.0662L67.2547 82.1142L55.7771 81.7906L45.9993 87.7786L36.2218 81.7905L24.7438 82.114L19.2868 72.066L9.1839 66.6385L9.38675 59.5211H15.5293C21.0193 71.3139 32.8817 78.8857 45.9993 78.8857C59.1172 78.8857 70.9794 71.3139 76.4694 59.5212H82.6119L82.8148 66.6386ZM89.1471 55.5148C89.1471 56.2513 88.5449 56.8503 87.8044 56.8503H50.0277V59.5212H73.482C68.2176 69.7266 57.6464 76.2148 45.9993 76.2148C34.3523 76.2148 23.7809 69.7266 18.5165 59.5212H41.971V56.8503H4.19434C3.45402 56.8503 2.85156 56.2513 2.85156 55.5148V35.4826C2.85156 34.7461 3.45402 34.1471 4.19434 34.1471H87.8044C88.5449 34.1471 89.1471 34.7461 89.1471 35.4826V55.5148Z" fill="black"/>
<path d="M44.6566 56.8503H47.3421V59.5212H44.6566V56.8503Z" fill="black"/>
<path d="M54.0558 20.1244H56.7414V22.7953H54.0558V20.1244Z" fill="black"/>
<path d="M59.4269 22.7955H62.1124V25.4665H59.4269V22.7955Z" fill="black"/>
<path d="M43.5593 38.7668L38.6691 51.5372L41.1788 52.4879L42.3443 49.4442H47.0515L48.2054 52.4854L50.718 51.5424L45.8694 38.7641L43.5593 38.7668ZM43.367 46.7733L44.7085 43.2699L46.0378 46.7733H43.367Z" fill="black"/>
<path d="M63.7069 46.8491L58.6001 38.7657L56.0379 38.7648V52.2317H58.7235V43.9814L63.8305 52.065H66.3925V38.7451H63.7069V46.8491Z" fill="black"/>
<path d="M75.9523 38.7451H71.6209V51.9115H76.0515L76.0633 51.9113C79.2462 51.8556 81.5567 49.0872 81.5567 45.3281C81.5567 41.3908 79.3044 38.7451 75.9523 38.7451ZM76.0266 49.2407H74.3064V41.4162H75.9523C77.3633 41.4162 78.8712 42.4438 78.8712 45.3285C78.8712 47.9754 77.3986 49.2106 76.0266 49.2407Z" fill="black"/>
<path d="M18.1635 44.6798C18.5586 44.0785 18.7885 43.3605 18.7885 42.59C18.7885 40.4814 17.0637 38.7659 14.9433 38.7659H10.442V52.2523H15.4953C17.8496 52.2523 19.7651 50.3415 19.7651 47.9927C19.7651 46.6543 19.1394 45.4586 18.1635 44.6798ZM13.1275 41.4369H14.9435C15.5828 41.4369 16.1031 41.9542 16.1031 42.59C16.1031 43.2275 15.583 43.7462 14.9437 43.7462H13.1275V41.4369ZM15.4953 49.5815H13.1275V46.4171H15.4953C16.3688 46.4171 17.0796 47.1241 17.0796 47.9928C17.0796 48.8689 16.3688 49.5815 15.4953 49.5815Z" fill="black"/>
<path d="M33.5583 42.9123C33.5583 40.626 31.6165 38.7661 29.2295 38.7661H24.9955L24.9932 52.2523L27.6787 52.2527L27.6796 47.7733L31.7275 52.5324L33.7778 50.8073L30.4466 46.8908C32.2425 46.3856 33.5583 44.7939 33.5583 42.9123ZM27.6805 41.4369H29.2294C30.1201 41.4369 30.8726 42.1124 30.8726 42.9121C30.8726 43.7118 30.1201 44.3874 29.222 44.3874L27.6798 44.3958L27.6805 41.4369Z" fill="black"/>
</svg>
