<svg width="94" height="93" viewBox="0 0 94 93" fill="none" xmlns="http://www.w3.org/2000/svg">
<path fill-rule="evenodd" clip-rule="evenodd" d="M40.7464 42.4543H28.6276C27.5549 42.4543 26.8951 42.915 26.6294 43.5048C26.5327 43.7304 26.4829 43.9738 26.4829 44.2197C26.4829 44.4657 26.5327 44.709 26.6294 44.9347C26.8953 45.5243 27.5549 45.9852 28.6276 45.9852H40.7464C41.8192 45.9852 42.4789 45.5243 42.7448 44.9347C42.8415 44.7091 42.8915 44.4657 42.8915 44.2197C42.8915 43.9737 42.8415 43.7304 42.7448 43.5048C42.4789 42.915 41.8192 42.4543 40.7464 42.4543ZM29.5999 39.5884H39.7735C40.8462 39.5884 41.506 39.1275 41.7717 38.538C41.8684 38.3123 41.9182 38.069 41.9182 37.823C41.9182 37.577 41.8684 37.3337 41.7717 37.108C41.5058 36.5182 40.8462 36.0575 39.7735 36.0575H29.6003C28.5274 36.0575 27.8678 36.5182 27.6019 37.108C27.5052 37.3337 27.4554 37.577 27.4554 37.823C27.4554 38.069 27.5052 38.3123 27.6019 38.538C27.8678 39.1275 28.527 39.5884 29.5999 39.5884ZM30.1112 48.8504C29.0383 48.8504 28.3787 49.3111 28.1128 49.9009C28.0161 50.1265 27.9663 50.3699 27.9663 50.6158C27.9663 50.8618 28.0161 51.1052 28.1128 51.3308C28.3787 51.9204 29.0383 52.3813 30.1112 52.3813H39.2614C40.3341 52.3813 40.9939 51.9204 41.2596 51.3308C41.3562 51.1052 41.4061 50.8618 41.4061 50.6158C41.4061 50.3699 41.3562 50.1265 41.2596 49.9009C40.9937 49.3111 40.3341 48.8504 39.2614 48.8504H30.1112ZM32.072 55.2467C30.9992 55.2467 30.3394 55.7074 30.0738 56.2972C29.9771 56.5228 29.9272 56.7662 29.9272 57.0122C29.9272 57.2581 29.9771 57.5015 30.0738 57.7271C30.3396 58.3167 30.9992 58.7776 32.072 58.7776H37.3004C38.3731 58.7776 39.0329 58.3167 39.2988 57.7271C39.3954 57.5015 39.4452 57.2581 39.4452 57.0122C39.4452 56.7662 39.3954 56.5229 39.2988 56.2972C39.0329 55.7074 38.3733 55.2467 37.3006 55.2467H32.072ZM11.1739 34.7625H3.71742C3.5707 34.764 3.43041 34.8238 3.32664 34.9289C3.22287 35.034 3.16389 35.1761 3.16234 35.3248V58.4786C3.16378 58.6273 3.22273 58.7694 3.32652 58.8746C3.43032 58.9797 3.57067 59.0394 3.71742 59.0408H11.1739C11.3207 59.0394 11.461 58.9797 11.5648 58.8746C11.6686 58.7694 11.7276 58.6273 11.729 58.4786V35.3248C11.7275 35.1761 11.6685 35.034 11.5647 34.9289C11.461 34.8238 11.3207 34.764 11.1739 34.7625ZM8.51513 56.2844C8.42544 56.4528 8.30328 56.6013 8.1559 56.721C8.00852 56.8407 7.83892 56.9293 7.65716 56.9813C7.47539 57.0334 7.28515 57.048 7.09772 57.0242C6.91029 57.0004 6.72948 56.9387 6.56601 56.8428C6.40254 56.7469 6.25974 56.6187 6.14607 56.4659C6.0324 56.313 5.95017 56.1385 5.90426 55.9529C5.85836 55.7672 5.8497 55.5741 5.87881 55.385C5.90792 55.1959 5.97421 55.0146 6.07374 54.8519L6.17252 54.6789C6.36498 54.3609 6.67244 54.1317 7.02931 54.0402C7.38618 53.9487 7.76422 54.0022 8.08278 54.1891C8.40133 54.376 8.63518 54.6817 8.73445 55.0409C8.83372 55.4001 8.79054 55.7843 8.61412 56.1117L8.51513 56.2844ZM27.9927 20.1336C28.0952 20.2407 28.1914 20.3537 28.2809 20.4722C29.3191 21.84 29.8658 24.2248 29.146 26.8252L27.2491 33.6793C26.2686 34.131 25.4832 34.9278 25.0386 35.9218C24.705 36.6629 24.5724 37.4807 24.6544 38.291C24.7364 39.1013 25.03 39.8749 25.5051 40.532C24.8806 40.9909 24.3847 41.6066 24.0661 42.3185C23.7948 42.9148 23.6544 43.5635 23.6544 44.22C23.6544 44.8766 23.7948 45.5253 24.0661 46.1215C24.4437 46.9662 25.0696 47.6721 25.8583 48.1425C25.4476 48.7865 25.204 49.5252 25.1502 50.2901C25.0963 51.055 25.234 51.8212 25.5503 52.5178C25.9858 53.4916 26.7488 54.2768 27.7031 54.7328C27.6333 54.8563 27.5694 54.9825 27.5113 55.1114C27.2499 55.6857 27.1098 56.3091 27.1001 56.9415C27.0904 57.5738 27.2112 58.2013 27.4548 58.7836H18.5546V58.778C17.657 58.7593 16.7766 58.5259 15.985 58.0968C15.4272 57.8166 14.9392 57.4124 14.5572 56.9143V37.6149C14.756 37.5256 15.0398 37.4038 15.3051 37.2898C15.715 37.1307 16.1098 36.9345 16.4848 36.7035C20.7892 33.7742 22.1931 29.586 23.7425 24.9632C24.0902 23.9254 24.4457 22.8652 24.7952 21.9212C25.356 20.4073 25.9995 19.6783 26.605 19.5283C26.8495 19.4766 27.1041 19.5126 27.3254 19.63C27.5362 19.7357 27.7294 19.8741 27.898 20.0401C27.9278 20.0726 27.9599 20.1037 27.9927 20.1336ZM43.8662 47.9095C44.492 47.4505 44.9889 46.8341 45.3079 46.1211C45.5791 45.5249 45.7195 44.8761 45.7195 44.2196C45.7195 43.5631 45.5791 42.9144 45.3079 42.3181C44.9893 41.6062 44.4934 40.9905 43.8689 40.5316C44.3464 39.8757 44.6416 39.1021 44.7237 38.2914C44.8057 37.4806 44.6716 36.6624 44.3354 35.922C43.6995 34.5114 42.355 33.3846 40.3169 33.2147C41.0705 29.0511 43.2109 25.2754 46.3807 22.5182C49.5506 19.7609 53.558 18.189 57.7339 18.0649C61.9097 17.9408 66.0012 19.272 69.3251 21.8362C72.6491 24.4004 75.0042 28.0424 75.9973 32.1541C76.9904 36.2658 76.5614 40.5983 74.7818 44.4281C73.0023 48.2579 69.98 51.3532 66.2195 53.1971C62.459 55.041 58.1881 55.522 54.1198 54.5597C50.0516 53.5973 46.4322 51.25 43.8662 47.9095ZM37.7031 64.6127L31.0682 81.1234L39.4741 76.2886C39.6592 76.1822 39.8657 76.1197 40.0781 76.1058C40.2905 76.0918 40.5032 76.1268 40.7004 76.2081C40.8975 76.2893 41.0739 76.4147 41.2164 76.5749C41.3589 76.7351 41.4637 76.926 41.523 77.1331L44.2063 86.5455L51.1256 69.3267C50.6213 69.0257 50.0836 68.7863 49.5238 68.6132C48.5404 68.339 47.2945 68.3852 46.053 68.4314C44.0691 68.505 42.0961 68.5782 40.3615 67.5486C39.1663 66.8393 38.3707 65.7801 37.7015 64.6125L37.7031 64.6127ZM80.5128 61.3318L89.5668 83.863H89.5646C89.6745 84.138 89.6973 84.4408 89.6296 84.7295C89.562 85.0181 89.4074 85.2783 89.1872 85.4739C88.967 85.6694 88.6922 85.7907 88.4009 85.8208C88.1096 85.8509 87.8163 85.7884 87.5617 85.6419L77.1706 79.6659L73.8825 91.201C73.8194 91.5006 73.6631 91.7717 73.4366 91.9746C73.2101 92.1774 72.9254 92.3013 72.6242 92.328C72.3231 92.3546 72.0214 92.2827 71.7636 92.1227C71.5058 91.9628 71.3055 91.7233 71.192 91.4393L62.9147 70.8414C61.4788 71.7157 59.9825 72.4578 58.2424 72.4578C56.5023 72.4578 55.0058 71.7161 53.5694 70.8414L45.2922 91.4406C45.1787 91.7245 44.9784 91.964 44.7206 92.124C44.4628 92.2839 44.1611 92.3559 43.86 92.3292C43.5588 92.3025 43.2741 92.1786 43.0476 91.9758C42.8211 91.7729 42.6648 91.5018 42.6017 91.2023L39.3137 79.6692L28.9227 85.6434C28.6681 85.7898 28.3748 85.8524 28.0835 85.8222C27.7922 85.7921 27.5174 85.6709 27.2972 85.4753C27.077 85.2798 26.9224 85.0196 26.8548 84.7309C26.7871 84.4423 26.8099 84.1395 26.9198 83.8645H26.9176L35.8466 61.643H32.0728C31.982 61.643 31.8924 61.641 31.804 61.6374H18.5546V61.643C17.1988 61.6191 15.8678 61.2706 14.6703 60.6259C14.4613 60.514 14.2577 60.3935 14.0596 60.2643C13.7568 60.7647 13.3327 61.1783 12.8276 61.4657C12.3225 61.7531 11.7532 61.9047 11.1739 61.9062H3.71742C2.82068 61.9046 1.96113 61.5429 1.32698 60.9005C0.692829 60.2581 0.335768 59.3872 0.333984 58.4786V35.3248C0.335607 34.4161 0.692609 33.5451 1.32679 32.9026C1.96096 32.2601 2.82061 31.8984 3.71742 31.8969H11.1739C11.9375 31.8986 12.6782 32.1612 13.2761 32.6422C13.8741 33.1233 14.2945 33.7947 14.4692 34.5478C14.623 34.4859 14.7723 34.4132 14.9161 34.3302C18.421 31.9452 19.6797 28.1901 21.0688 24.0452C21.3973 23.0653 21.7329 22.064 22.1548 20.9248C23.0874 18.4071 24.4721 17.1164 25.9422 16.7521C26.8118 16.5396 27.7274 16.643 28.5296 17.0441C28.5844 17.0704 28.639 17.098 28.6932 17.127C29.6813 16.1646 30.9354 15.518 32.1871 14.8727C33.2711 14.3144 34.3514 13.757 35.0433 13.0559C35.7352 12.3548 36.2856 11.2591 36.8367 10.1614C37.727 8.38832 38.62 6.60982 40.3629 5.57551C42.0977 4.54576 44.0708 4.61912 46.0546 4.69269C47.2959 4.73869 48.5423 4.78511 49.5256 4.51094C50.4746 4.2463 51.5121 3.58543 52.5605 2.91751C54.3133 1.80092 56.0918 0.667969 58.2426 0.667969C60.3934 0.667969 62.1715 1.80092 63.9241 2.9173C64.9727 3.58522 66.0102 4.24609 66.9594 4.51073C67.943 4.7847 69.1887 4.73869 70.4302 4.69248C72.414 4.6187 74.3873 4.54555 76.1218 5.5751C77.865 6.60982 78.758 8.38811 79.6482 10.1614C80.1994 11.2598 80.7496 12.3544 81.4415 13.0555C82.1334 13.7565 83.2147 14.3142 84.2979 14.8727C86.048 15.7748 87.803 16.6798 88.824 18.4457C89.8401 20.2032 89.7679 22.2026 89.6953 24.2126C89.6499 25.4703 89.6043 26.7332 89.8748 27.7298C90.1358 28.6916 90.788 29.7429 91.4472 30.8052C92.549 32.5812 93.6673 34.3833 93.6673 36.5624C93.6673 38.7415 92.5492 40.5434 91.4474 42.3194C90.7882 43.3817 90.1358 44.4332 89.8748 45.395C89.6045 46.3913 89.6499 47.6538 89.6955 48.9117C89.7683 50.9219 89.8405 52.9211 88.8244 54.6789C87.8032 56.4452 86.048 57.35 84.2981 58.252C83.2141 58.8106 82.1338 59.3678 81.4419 60.0689C81.0833 60.4509 80.7714 60.8753 80.513 61.333L80.5128 61.3318ZM65.3576 69.3271L72.2768 86.5457L74.9589 77.1339C75.0183 76.9268 75.1231 76.736 75.2656 76.5758C75.4081 76.4156 75.5845 76.2901 75.7817 76.2089C75.9788 76.1276 76.1916 76.0927 76.404 76.1066C76.6164 76.1206 76.8229 76.1831 77.0081 76.2894L85.414 81.1242L78.7796 64.6148C78.1106 65.782 77.3153 66.8409 76.1208 67.5501C74.3863 68.5796 72.413 68.5063 70.4294 68.4329C69.1881 68.3867 67.9417 68.3407 66.958 68.6149C66.398 68.7881 65.8602 69.0276 65.3557 69.3286L65.3576 69.3271ZM62.772 67.5656L62.4225 67.7878C61.0188 68.682 59.5943 69.5895 58.243 69.5895C56.8917 69.5895 55.4676 68.6822 54.064 67.788C53.9474 67.7138 53.831 67.6397 53.7147 67.5658C53.6668 67.5313 53.6169 67.4998 53.5651 67.4715C52.5102 66.8084 51.4473 66.1877 50.2662 65.8586C48.8652 65.4682 47.4076 65.5223 45.9558 65.5762C44.38 65.6346 42.8123 65.6928 41.7889 65.0852C40.7712 64.4811 40.0625 63.0701 39.3561 61.6631C39.3015 61.5554 39.247 61.4478 39.1925 61.3403C39.7786 61.1443 40.3184 60.8276 40.7779 60.41C41.2374 59.9924 41.6067 59.483 41.8625 58.9138C42.1338 58.3176 42.2742 57.6689 42.2742 57.0124C42.2742 56.3559 42.1338 55.7072 41.8625 55.111C41.8047 54.9821 41.7407 54.8559 41.6707 54.7324C42.625 54.2763 43.388 53.4912 43.8235 52.5174C43.869 52.4163 43.9108 52.3141 43.9489 52.2109C47.3906 55.4365 51.7972 57.4047 56.469 57.8029C61.1407 58.2011 65.8099 57.0065 69.7351 54.4088C73.6603 51.8112 76.6166 47.9593 78.1345 43.4648C79.6525 38.9702 79.6452 34.0907 78.1137 29.6009C76.5822 25.1111 73.6144 21.2683 69.6814 18.6828C65.7484 16.0973 61.0756 14.9171 56.4051 15.3297C51.7346 15.7423 47.3339 17.7241 43.9019 20.9603C40.4698 24.1965 38.2031 28.5017 37.4616 33.1923H30.3157L31.8642 27.597C32.7862 24.2652 32.1096 21.1012 30.7683 19.0854C31.4721 18.4533 32.4712 17.9383 33.468 17.4242C34.7539 16.761 36.0373 16.0995 37.0425 15.0812C38.0477 14.0628 38.7006 12.7622 39.3548 11.4591C40.0615 10.0522 40.7699 8.64073 41.7874 8.03726C42.8101 7.42985 44.3788 7.48788 45.9546 7.54653C47.4067 7.6002 48.8642 7.65449 50.2652 7.26406C51.6322 6.88296 52.8409 6.11287 54.0623 5.3347C55.4662 4.44048 56.8907 3.53279 58.242 3.53279C59.5933 3.53279 61.0174 4.44027 62.421 5.33429C63.6426 6.11246 64.8516 6.88275 66.2186 7.26365C67.6196 7.65408 69.0774 7.59999 70.5292 7.54611C72.104 7.48767 73.6727 7.42944 74.6961 8.03705C75.7138 8.64114 76.4223 10.052 77.13 11.4591C77.7844 12.762 78.4371 14.0624 79.4423 15.081C80.4475 16.0995 81.7303 16.7621 83.0172 17.4252C84.4057 18.1412 85.7987 18.8591 86.3943 19.8901C86.9939 20.9273 86.9364 22.5155 86.8788 24.1123C86.8258 25.5837 86.7724 27.0606 87.1577 28.4802C87.5339 29.8654 88.2937 31.0901 89.0619 32.3281C89.9442 33.7504 90.8398 35.1938 90.8398 36.5628C90.8398 37.9318 89.9444 39.375 89.0619 40.7972C88.2939 42.0353 87.5339 43.2602 87.1577 44.6454C86.7724 46.0649 86.826 47.5419 86.879 49.0129C86.9369 50.6096 86.9941 52.1981 86.3947 53.2353C85.7985 54.2665 84.4059 54.9844 83.0174 55.7002C81.7313 56.3633 80.4481 57.0248 79.4429 58.0432C78.4377 59.0615 77.7848 60.3621 77.1304 61.6652C76.4239 63.0721 75.7153 64.4836 74.698 65.0871C73.6753 65.6947 72.1068 65.6365 70.531 65.578C69.0789 65.5241 67.6212 65.4703 66.22 65.8607C65.0389 66.19 63.9756 66.8098 62.9201 67.4744C62.869 67.5024 62.8197 67.5336 62.7724 67.5677L62.772 67.5656ZM49.2536 39.2886L54.7405 44.0728C55.0248 44.319 55.394 44.4408 55.7668 44.4114C56.1397 44.382 56.4858 44.2039 56.7291 43.9161C56.7518 43.8885 56.7732 43.8609 56.7935 43.8332L67.3916 31.0551C67.5129 30.9121 67.605 30.7461 67.6626 30.5668C67.7202 30.3875 67.7421 30.1984 67.7271 30.0104C67.7121 29.8225 67.6604 29.6394 67.5751 29.4718C67.4898 29.3042 67.3726 29.1554 67.2301 29.034C67.0877 28.9126 66.9229 28.8211 66.7453 28.7646C66.5678 28.7082 66.3809 28.688 66.1956 28.7052C66.0102 28.7225 65.8301 28.7767 65.6656 28.865C65.5012 28.9532 65.3556 29.0736 65.2373 29.2192L55.4987 40.9628L51.0884 37.1174C50.9488 36.9877 50.7848 36.8878 50.6063 36.8236C50.4278 36.7595 50.2384 36.7324 50.0494 36.744C49.8603 36.7556 49.6755 36.8056 49.506 36.8911C49.3364 36.9766 49.1856 37.0958 49.0624 37.2416C48.9393 37.3874 48.8464 37.5569 48.7892 37.7398C48.7321 37.9228 48.7118 38.1155 48.7298 38.3066C48.7477 38.4976 48.8034 38.683 48.8935 38.8518C48.9836 39.0206 49.1064 39.1693 49.2544 39.289L49.2536 39.2886Z" fill="black"/>
</svg>
