<svg width="175" height="44" viewBox="0 0 175 44" fill="none" xmlns="http://www.w3.org/2000/svg">
<path d="M41.3538 42.9962H30.211L16.1554 23.857C15.3877 23.924 14.5749 23.9574 13.7169 23.9574C13.3556 23.9574 13.0056 23.9574 12.6669 23.9574C12.3508 23.9351 12.0347 23.9128 11.7186 23.8905V35.7688C11.7186 37.4418 11.8541 38.7133 12.125 39.5833C12.4186 40.4532 13.0056 41.0444 13.8862 41.3567C14.7668 41.6689 16.0764 41.8251 17.815 41.8251V42.9962H0V41.8251C1.78376 41.8251 3.09335 41.6689 3.92878 41.3567C4.76421 41.0444 5.29482 40.4532 5.52061 39.5833C5.76898 38.7133 5.89317 37.4418 5.89317 35.7688V9.20152C5.89317 7.4839 5.76898 6.19011 5.52061 5.32015C5.29482 4.42788 4.76421 3.8256 3.92878 3.51331C3.09335 3.20101 1.78376 3.04487 0 3.04487V1.97414H15.6474C17.4537 1.97414 19.3278 2.08568 21.2696 2.30875C23.234 2.53181 25.0516 3.00025 26.7225 3.71407C28.4159 4.42788 29.7819 5.48745 30.8206 6.89278C31.8592 8.27579 32.3786 10.1384 32.3786 12.4806C32.3786 15.6035 31.4077 17.9904 29.4658 19.6411C27.524 21.2695 25.1081 22.3848 22.2179 22.9871L30.6851 34.8319C32.1979 36.9065 33.6882 38.5349 35.1558 39.7171C36.6234 40.8771 38.6894 41.5797 41.3538 41.8251V42.9962ZM25.5371 12.949C25.5371 10.3169 24.7016 8.20887 23.0308 6.62509C21.3825 5.04132 19.2262 4.24943 16.5618 4.24943C15.7716 4.24943 14.97 4.3052 14.1572 4.41673C13.3669 4.52826 12.554 4.65095 11.7186 4.78479V21.7825C12.1024 21.8494 12.6895 21.8829 13.4798 21.8829C15.4667 21.8829 17.3747 21.6152 19.2036 21.0798C21.0551 20.5222 22.5679 19.5965 23.742 18.3027C24.9387 17.0089 25.5371 15.2243 25.5371 12.949Z" fill="black"/>
<path d="M65.9087 32.2221L66.8231 32.8913C66.5522 34.7873 65.8974 36.583 64.8587 38.2783C63.8201 39.9513 62.4879 41.312 60.8622 42.3605C59.2365 43.4089 57.3963 43.9331 55.3416 43.9331C52.6547 43.9331 50.3968 43.2304 48.5678 41.8251C46.7615 40.3975 45.3955 38.5795 44.4697 36.3711C43.544 34.1404 43.0811 31.8205 43.0811 29.4114C43.0811 26.7569 43.5553 24.292 44.5036 22.0167C45.4519 19.7414 46.8857 17.9123 48.8049 16.5293C50.7241 15.1463 53.1514 14.4548 56.0867 14.4548C59.4736 14.4548 62.1041 15.5255 63.9781 17.6669C65.8748 19.7861 66.8231 22.474 66.8231 25.7308H47.4502C47.4502 27.7161 47.8114 29.7349 48.534 31.7871C49.2565 33.817 50.3742 35.5123 51.887 36.873C53.3998 38.2337 55.3303 38.9141 57.6785 38.9141C59.8236 38.9141 61.5396 38.2783 62.8266 37.0068C64.1362 35.7131 65.1635 34.1181 65.9087 32.2221ZM47.4502 23.9909H60.4219C60.4219 22.764 60.2074 21.5929 59.7784 20.4776C59.372 19.3399 58.7172 18.4142 57.814 17.7004C56.9334 16.9866 55.7819 16.6297 54.3594 16.6297C52.2595 16.6297 50.6225 17.3881 49.4484 18.9049C48.2743 20.4218 47.6082 22.1171 47.4502 23.9909Z" fill="black"/>
<path d="M100.218 32.4897C100.218 34.8542 99.5968 36.9065 98.3549 38.6464C97.1131 40.364 95.4987 41.6913 93.5117 42.6281C91.5473 43.5427 89.4362 44 87.1783 44C85.7106 44 84.243 43.7992 82.7753 43.3977C81.3302 42.9962 80.0094 42.5947 78.8127 42.1932C77.6385 41.7916 76.7015 41.5909 76.0015 41.5909C75.3242 41.5909 74.85 41.8586 74.5791 42.3939C74.3307 42.9293 74.1726 43.4646 74.1049 44H72.9872V29.8129H74.1049C74.5339 33.3151 75.7758 36.1592 77.8305 38.3452C79.9078 40.509 82.7979 41.5909 86.5009 41.5909C87.833 41.5909 89.1313 41.3455 90.3958 40.8548C91.6602 40.3417 92.6989 39.5833 93.5117 38.5795C94.3246 37.5757 94.731 36.3265 94.731 34.8319C94.731 33.2482 94.2004 31.8651 93.1392 30.6829C92.0779 29.5006 90.7119 28.4188 89.041 27.4373C87.3702 26.4335 85.5864 25.4408 83.6898 24.4593C81.8157 23.4778 80.0432 22.4071 78.3724 21.2471C76.7015 20.0872 75.3355 18.7488 74.2742 17.2319C73.213 15.7151 72.6824 13.9194 72.6824 11.8449C72.6824 9.59189 73.2469 7.66236 74.3758 6.05627C75.5048 4.45019 76.9837 3.22332 78.8127 2.37567C80.6416 1.5057 82.6173 1.07072 84.7397 1.07072C85.9816 1.07072 87.2234 1.26033 88.4653 1.63954C89.7071 2.01876 90.8361 2.40913 91.8521 2.81065C92.8908 3.18986 93.7149 3.37947 94.3246 3.37947C94.9568 3.37947 95.4197 3.11179 95.7132 2.57643C96.0067 2.01876 96.2099 1.51686 96.3228 1.07072H97.5082V15.2243H96.3228C96.1422 13.0829 95.5777 11.1199 94.6294 9.33536C93.7036 7.55082 92.4166 6.12319 90.7683 5.05247C89.1426 3.98175 87.1557 3.44639 84.8074 3.44639C83.5882 3.44639 82.414 3.70291 81.2851 4.21597C80.1787 4.72902 79.2642 5.45399 78.5417 6.39087C77.8418 7.32776 77.4918 8.43194 77.4918 9.70342C77.4918 11.198 78.0337 12.5141 79.1175 13.6517C80.2239 14.7894 81.6351 15.8378 83.3511 16.797C85.0897 17.7561 86.9186 18.7265 88.8378 19.708C90.7796 20.6672 92.6085 21.7379 94.3246 22.9202C96.0632 24.0801 97.4744 25.4297 98.5582 26.9688C99.6645 28.508 100.218 30.3483 100.218 32.4897Z" fill="black"/>
<path d="M131.377 37.2411V38.981C130.609 40.0071 129.661 41.0332 128.532 42.0593C127.403 43.0631 126.127 43.565 124.705 43.565C123.395 43.565 122.526 43.0743 122.097 42.0928C121.668 41.1113 121.453 40.074 121.453 38.981C120.099 40.0517 118.721 41.089 117.321 42.0928C115.922 43.0743 114.307 43.565 112.478 43.565C110.356 43.565 108.708 42.8847 107.533 41.524C106.382 40.1409 105.806 38.4345 105.806 36.4046C105.806 34.7316 106.359 33.2593 107.466 31.9878C108.572 30.694 109.961 29.5787 111.632 28.6418C113.325 27.7049 115.052 26.9131 116.813 26.2662C118.597 25.6193 120.144 25.0839 121.453 24.6601V23.5224C121.453 22.2733 121.329 21.1022 121.081 20.0091C120.833 18.8938 120.336 17.9904 119.591 17.2989C118.846 16.6074 117.717 16.2616 116.204 16.2616C114.352 16.2616 113.201 16.7523 112.749 17.7338C112.298 18.693 112.072 19.9311 112.072 21.4479C112.072 22.3402 111.891 23.0428 111.53 23.5559C111.169 24.0689 110.48 24.3255 109.464 24.3255C108.516 24.3255 107.849 24.0578 107.466 23.5224C107.082 22.9871 106.89 22.2956 106.89 21.4479C106.89 19.7749 107.454 18.4253 108.583 17.3992C109.712 16.3731 111.067 15.6259 112.648 15.1574C114.251 14.689 115.752 14.4548 117.152 14.4548C120.697 14.4548 123.147 15.1686 124.502 16.5962C125.856 18.0238 126.534 20.4664 126.534 23.924V33.3597C126.534 34.1404 126.534 35.0215 126.534 36.003C126.556 36.9622 126.613 37.6984 126.703 38.2114C126.748 38.5906 126.872 38.9364 127.076 39.2487C127.279 39.561 127.595 39.7171 128.024 39.7171C128.34 39.7171 128.724 39.5498 129.176 39.2152C129.627 38.8806 130.056 38.5237 130.463 38.1445C130.892 37.743 131.196 37.4418 131.377 37.2411ZM121.453 36.9734V26.3665C120.076 26.8796 118.563 27.5265 116.915 28.3072C115.289 29.088 113.889 30.036 112.715 31.1513C111.541 32.2444 110.954 33.527 110.954 34.9992C110.954 36.2038 111.338 37.3414 112.106 38.4122C112.873 39.4829 113.946 40.0182 115.323 40.0182C116.384 40.0182 117.457 39.6837 118.541 39.0144C119.647 38.3229 120.618 37.6426 121.453 36.9734Z" fill="black"/>
<path d="M147.6 42.9962H133.782V41.8251C135.724 41.8251 136.909 41.3901 137.338 40.5202C137.767 39.6279 137.981 38.3676 137.981 36.7392V8.90038C137.981 7.56198 137.857 6.40203 137.609 5.42053C137.383 4.41673 136.751 3.91483 135.712 3.91483C135.396 3.91483 135.08 3.95944 134.764 4.04867C134.47 4.11559 134.143 4.20482 133.782 4.31635L133.308 3.27909L141.707 0H143.062V36.7392C143.062 38.5906 143.31 39.9067 143.807 40.6875C144.304 41.4459 145.568 41.8251 147.6 41.8251V42.9962Z" fill="black"/>
<path d="M174.086 32.2221L175 32.8913C174.729 34.7873 174.074 36.583 173.036 38.2783C171.997 39.9513 170.665 41.312 169.039 42.3605C167.413 43.4089 165.573 43.9331 163.518 43.9331C160.832 43.9331 158.574 43.2304 156.745 41.8251C154.938 40.3975 153.572 38.5795 152.647 36.3711C151.721 34.1404 151.258 31.8205 151.258 29.4114C151.258 26.7569 151.732 24.292 152.68 22.0167C153.629 19.7414 155.063 17.9123 156.982 16.5293C158.901 15.1463 161.328 14.4548 164.264 14.4548C167.65 14.4548 170.281 15.5255 172.155 17.6669C174.052 19.7861 175 22.474 175 25.7308H155.627C155.627 27.7161 155.988 29.7349 156.711 31.7871C157.433 33.817 158.551 35.5123 160.064 36.873C161.577 38.2337 163.507 38.9141 165.855 38.9141C168 38.9141 169.716 38.2783 171.003 37.0068C172.313 35.7131 173.34 34.1181 174.086 32.2221ZM155.627 23.9909H168.599C168.599 22.764 168.384 21.5929 167.955 20.4776C167.549 19.3399 166.894 18.4142 165.991 17.7004C165.11 16.9866 163.959 16.6297 162.536 16.6297C160.436 16.6297 158.799 17.3881 157.625 18.9049C156.451 20.4218 155.785 22.1171 155.627 23.9909Z" fill="black"/>
</svg>
