<svg width="96" height="29" viewBox="0 0 96 29" fill="none" xmlns="http://www.w3.org/2000/svg">
<path fill-rule="evenodd" clip-rule="evenodd" d="M34.4142 22.8651L34.2727 22.9035L33.9638 23.1591C32.8441 24.7951 32.1105 25.8175 31.763 26.2265C30.5146 27.6836 29.4464 28.4121 28.5455 28.4121C27.8892 28.3737 27.5674 28.0286 27.5674 27.3768L27.8892 26.2265L32.9857 16.5258L29.2276 16.7942L26.7051 20.2578C27.4902 18.0851 27.8763 15.58 27.8763 12.7426C27.8763 8.83164 26.8467 5.71309 24.7875 3.39973L25.9201 2.36448L26.9497 1.6104L27.9278 1.0736L27.0269 1.25253L26.0874 1.66152L24.1183 2.72234C22.9342 1.85324 21.7502 1.21419 20.579 0.805199C18.9832 0.281183 17.117 0 14.9677 0C11.1454 0 7.97936 1.23975 5.46972 3.73204C3.2561 5.93037 2.14927 8.37153 2.14927 11.0811C2.18789 12.8193 2.7413 14.2508 3.79663 15.3883C4.96779 16.5513 6.56367 17.1265 8.60999 17.1265C10.7721 17.0881 12.5225 16.1679 13.8481 14.3658C15.045 12.7426 15.637 10.8638 15.637 8.76773C15.5984 7.78361 15.4311 6.92728 15.1479 6.19877C14.839 5.368 14.3886 4.78008 13.8095 4.42221L13.6164 4.38387L13.4877 4.47334L13.6679 4.69061C14.1955 5.12516 14.5559 5.66196 14.7489 6.30101C14.9549 6.71 15.0578 7.06787 15.0578 7.36183L15.1093 8.65271C15.045 10.5954 14.4915 12.372 13.4491 13.9824C12.1878 15.7589 10.5791 16.6536 8.60999 16.6536C7.12995 16.6152 6.03601 16.1551 5.34102 15.2732C4.62031 14.2124 4.25995 12.9727 4.25995 11.5795C4.25995 8.90833 5.19946 6.46716 7.07847 4.24328C9.24062 1.73821 11.879 0.485675 15.0063 0.485675C18.6099 0.524016 21.3898 1.48259 23.3332 3.33583L21.1968 4.98457C19.9484 6.00705 18.8416 7.47686 17.8892 9.394C17.1428 10.6849 16.3191 12.6276 15.4182 15.2093L12.9086 21.3059C11.8532 23.4658 10.6821 25.1657 9.40792 26.4182C7.31013 25.5619 5.19946 25.1401 3.08879 25.1401C2.11067 25.1785 1.36421 25.3446 0.836546 25.6258C0.283132 25.9198 0 26.3288 0 26.8656C0 27.5557 0.398965 28.0798 1.20978 28.4249C1.59588 28.6166 2.08492 28.7572 2.68982 28.8722L4.62031 29L6.10035 28.9105L7.3616 28.6421C7.619 28.5782 7.81205 28.5271 7.92788 28.4888C8.01958 28.4614 8.12435 28.4341 8.24683 28.4022C8.29626 28.3893 8.34857 28.3756 8.40408 28.361C8.51201 28.3324 8.60385 28.3078 8.67961 28.2872C8.73934 28.2709 8.78906 28.2572 8.82878 28.2459C9.30497 28.067 9.66532 27.9264 9.89699 27.7986C11.6087 28.5143 13.4234 28.8722 15.3667 28.8722C19.0604 28.8083 22.0591 27.364 24.3628 24.5139C24.8519 23.9004 25.2766 23.2486 25.6627 22.5584L28.5841 18.558L25.8042 24.1177C25.534 24.8078 25.4053 25.4469 25.4053 26.0348C25.4053 26.8656 25.6369 27.5557 26.0874 28.0798C26.6279 28.6166 27.31 28.885 28.1466 28.885C29.0861 28.8211 29.9741 28.5015 30.7849 27.9008C31.6858 27.1851 32.8956 25.7153 34.4142 23.4531L34.5429 23.0057L34.4142 22.8651ZM6.91115 27.9392C6.07461 28.2331 5.10936 28.3865 4.00255 28.3865C3.20462 28.3865 2.44529 28.2459 1.71171 27.9775C0.990979 27.5813 0.643497 27.2107 0.643497 26.8528C0.682113 26.0604 1.48004 25.6642 3.02444 25.6642C3.166 25.677 3.3848 25.6897 3.65507 25.7025C3.92533 25.7153 4.11838 25.7281 4.23421 25.7409C4.77474 25.8559 5.21233 25.9453 5.53407 25.9965L7.05273 26.5333L8.53278 27.1468L6.91115 27.9392ZM23.745 23.9771C21.4542 26.7378 18.9188 28.1181 16.1389 28.1181L14.839 28.0286L13.5778 27.7986L11.3513 27.134L13.0501 26.201C14.8648 25.1913 16.3062 23.7726 17.3873 21.9321C18.2496 20.5646 18.996 18.6602 19.6267 16.2318L21.9561 8.35875C22.6897 6.6461 23.449 5.22742 24.247 4.08991C26.1903 6.41604 27.1556 9.40678 27.1556 13.0749C27.117 15.3372 26.8338 17.331 26.319 19.0309C25.7141 20.8713 24.8647 22.5073 23.745 23.9771Z" fill="white"/>
<path d="M34.5815 10.6338C34.3113 10.3398 33.9509 10.1864 33.5133 10.1864C32.9342 10.1864 32.4837 10.3654 32.1749 10.7232C31.8402 11.0811 31.6858 11.5156 31.6858 12.0141C31.8274 12.6276 31.9432 12.9982 32.0333 13.1388C32.4451 13.3944 32.8312 13.535 33.2044 13.535C33.8479 13.4967 34.2984 13.305 34.5429 12.9599C34.8389 12.5892 34.9934 12.1675 34.9934 11.7201C34.9934 11.26 34.8518 10.9022 34.5815 10.6338Z" fill="white"/>
<path d="M65.1379 1.55928C64.3013 2.07052 63.2846 2.31335 62.0877 2.31335L59.5394 2.17276L56.8882 1.8149L53.8895 1.32922L51.5215 1.20141C49.3722 1.23975 47.4546 1.57206 45.7815 2.18554C44.0955 2.85015 42.564 3.82151 41.2126 5.11238C38.9475 7.37462 37.815 9.79021 37.815 12.372C37.815 13.5606 38.1239 14.5064 38.7545 15.2221C39.4752 15.9379 40.4147 16.2829 41.573 16.2829C43.9153 16.2829 45.7429 15.5289 47.0427 14.0335C48.1753 12.7298 48.7544 11.0683 48.7544 9.04892C48.7544 7.61745 48.4842 6.42882 47.9436 5.49581L47.8535 5.85368C47.8535 6.82504 47.7248 7.86029 47.4546 8.95945C47.1328 10.1097 46.7467 11.145 46.322 12.0652C45.0479 14.5192 43.4778 15.7589 41.573 15.7589C40.4919 15.7206 39.7069 15.4138 39.2049 14.8643C38.6901 14.2763 38.4327 13.4456 38.4327 12.3848C38.4842 9.99471 39.5267 7.74526 41.573 5.62362C44.0698 3.19524 47.0556 1.98105 50.5305 1.98105L52.3194 2.15999L54.0697 2.69678L56.3992 3.80872L58.497 4.65227C59.1147 4.8312 59.8354 4.92067 60.6462 4.92067C62.4995 4.88233 63.941 4.30718 64.9834 3.2208C65.7685 2.31335 66.3476 1.30366 66.7337 0.191714C66.2189 0.817985 65.6913 1.2781 65.1379 1.55928Z" fill="white"/>
<path fill-rule="evenodd" clip-rule="evenodd" d="M95.5367 23.0952L95.7941 22.9163L96 23.1591L95.9099 23.4786L94.6487 25.2168L93.7992 26.2776C92.2934 28.0414 90.6976 28.9489 89.0116 28.9872C87.2999 28.9872 85.9743 28.5143 85.0219 27.5685C84.2111 26.7761 83.8122 25.6897 83.8122 24.3222C83.8122 24.271 83.8154 24.2167 83.8186 24.1624C83.8218 24.1081 83.825 24.0538 83.825 24.0026C82.8469 25.4341 82.0618 26.4694 81.4441 27.1212C80.2729 28.3609 79.2047 28.9872 78.2266 28.9872C77.3 28.9872 76.5921 28.7572 76.0773 28.3098C75.6526 27.8753 75.4081 27.2234 75.3695 26.3543C75.3695 25.7025 75.5625 24.9868 75.9486 24.2199L80.2472 15.9123L74.6488 23.4658C73.2846 25.5364 72.1391 26.9806 71.1996 27.773C70.3373 28.4632 69.5265 28.8338 68.7801 28.8977C67.9564 28.8977 67.3129 28.6549 66.8496 28.1437C66.412 27.6324 66.1675 27.0062 66.1289 26.2776C66.1289 25.907 66.219 25.3702 66.3991 24.6672C66.5793 23.9259 67.004 23.0824 67.6475 22.1366C67.9564 21.5615 68.3168 21.0375 68.7286 20.539L69.4879 19.6955L70.4789 18.7241C70.2086 18.4046 69.7196 18.0978 68.9989 17.7911L66.6308 21.0375L64.7904 23.5681L64.7518 23.5936C64.2627 24.2583 63.6064 24.9229 62.7827 25.5619C62.3451 25.9198 61.7273 26.1498 60.9423 26.2776L59.4622 27.7858C58.4841 28.591 57.4159 28.9872 56.2834 28.9872C55.2152 28.9872 54.2757 28.5399 53.4649 27.6452C52.7441 26.8145 52.358 25.7153 52.2937 24.3605C52.2937 22.5456 53.0401 20.8585 54.533 19.2865C54.7261 19.0692 54.9191 18.8775 55.1251 18.6858C55.119 18.6484 55.1127 18.6131 55.1064 18.5783C55.0589 18.3153 55.0159 18.0775 55.1637 17.152C55.3439 16.0401 55.4854 15.5161 55.4854 15.5161L54.636 15.695L53.8767 15.8228C53.4262 18.0212 52.6927 20.0533 51.6759 21.9193C50.3246 24.3733 48.6515 26.1115 46.6566 27.1212L45.0479 27.7858L43.1689 28.3609L41.0196 28.7699L38.9218 28.9105C37.2101 28.9105 35.8202 28.5143 34.752 27.7091C33.7738 26.9295 33.259 25.9453 33.2204 24.7823C33.2204 23.9004 33.465 23.2102 33.9411 22.7373C34.1985 22.4817 34.4559 22.3028 34.7133 22.2005L35.7429 22.0216C36.2835 22.0216 36.824 22.2389 37.3517 22.6862C37.8279 23.0696 38.0853 23.5809 38.1239 24.2327C38.1239 24.8717 37.8407 25.498 37.2745 26.1115C36.7597 26.6227 36.0389 26.9039 35.1252 26.9423C35.7944 27.8241 36.9785 28.2715 38.6644 28.2715C40.7236 28.2715 42.757 27.0062 44.8034 24.4883C46.129 22.6862 47.5704 19.9639 49.1405 16.2957C47.6991 16.4874 46.3864 16.8581 45.2023 17.4204C44.3658 17.7911 43.3619 18.379 42.2037 19.197C43.1174 18.3662 44.2371 17.5994 45.5627 16.8836C46.6953 16.3341 47.9565 15.9123 49.3722 15.6311C50.8522 11.963 52.2293 9.36844 53.4906 7.86029C54.4558 6.63331 55.923 5.59806 57.9178 4.74173C57.3644 5.1635 56.7724 6.05817 56.1289 7.41296L54.0311 15.2349C54.4687 15.2349 54.7518 15.2093 54.8805 15.1454L55.5884 14.9154C55.7814 14.1102 56.0903 13.3433 56.5279 12.602C57.1199 11.8224 57.8535 11.4006 58.7286 11.3623C58.896 11.3623 59.1405 11.5029 59.4494 11.7713C59.6167 12.0269 59.7068 12.3464 59.7068 12.7426C59.7068 13.2794 59.5008 13.7523 59.089 14.1613C58.9088 14.3275 58.4455 14.5703 57.699 14.8643V16.1935C57.699 16.4747 57.7119 16.7431 57.7377 16.9859C58.6257 16.6408 59.5652 16.4619 60.5562 16.4619C61.5729 16.4619 62.358 16.7431 62.9243 17.3054C63.3618 17.8167 63.6064 18.5579 63.645 19.5165C63.645 20.6157 63.3876 21.7532 62.8728 22.9418C62.4095 24.1177 61.9075 25.0123 61.3541 25.613C61.959 25.4341 62.5639 25.1274 63.143 24.68C63.5549 24.3477 63.9281 23.9259 64.2627 23.4403L64.4558 23.0824L68.5741 17.446C68.2138 17.2671 68.0336 16.9987 68.0336 16.6408C68.0336 16.0145 68.3425 15.7078 68.9345 15.7078C69.4622 15.7078 69.7453 15.9762 69.7839 16.513C69.7839 16.8581 69.6295 17.1393 69.3335 17.3565C70.2473 17.8294 70.9937 18.3407 71.5728 18.8647C72.0233 19.2609 72.2936 19.6315 72.3837 19.9766C72.3837 20.3217 72.1906 20.8457 71.7916 21.5359L69.0117 26.1115C68.8187 26.5461 68.6128 27.1212 68.394 27.8369C68.394 28.2076 68.587 28.3865 68.9731 28.3865C69.6938 28.3865 70.5433 27.8497 71.5342 26.7761L72.7826 25.1785L74.4815 22.8268L74.4943 22.814L77.1327 19.1075L81.5599 13.3689L84.1597 8.38431L87.4286 8.12869L84.919 12.9727H88.0078L88.3681 13.1133L88.4067 13.2411L87.9177 13.4583H84.7002L78.5226 25.4725L78.1237 26.4566L77.9821 27.3513C77.9821 27.952 78.2395 28.2843 78.7543 28.3226C79.5393 28.3226 80.6977 27.364 82.2034 25.4341L83.9537 23.0185L84.0052 22.9674C84.327 21.4337 85.2021 20.0533 86.6436 18.8391C88.4711 17.2415 90.659 16.4363 93.2201 16.4363C94.7516 16.4363 95.5109 16.922 95.5109 17.9061C95.5109 18.0851 95.4595 18.3279 95.3694 18.6091C95.1635 19.1203 94.816 19.6571 94.3398 20.2195C93.6191 21.0758 92.731 21.7404 91.6886 22.2133L89.8095 22.8907L88.0721 23.0185L87.4415 24.7567L87.2227 26.3543C87.2227 26.8528 87.3514 27.3768 87.6217 27.9008C87.8662 28.2459 88.3167 28.4504 88.9601 28.4888C90.2471 28.4888 91.5341 27.8753 92.8083 26.6611C93.6062 25.907 94.52 24.7184 95.5367 23.0952ZM93.6963 16.9603C92.9884 16.9603 92.1004 17.4971 91.0451 18.5963C90.0412 19.6443 89.1275 20.9352 88.3167 22.4817H88.8572L89.8353 22.3411C90.3372 22.2516 90.8906 22.0599 91.4955 21.766C92.4479 21.3314 93.2458 20.7307 93.9151 19.9383C94.5586 19.1842 94.9061 18.5068 94.9447 17.8933C94.9447 17.2671 94.5328 16.9603 93.6963 16.9603ZM57.7377 13.2155L57.699 14.0591V14.2635L58.7286 13.7779C58.9088 13.6628 59.0761 13.305 59.2177 12.7171C59.2177 12.1803 59.0247 11.9118 58.6386 11.9118C58.3683 11.9118 58.1238 12.1291 57.9178 12.5381L57.7377 13.2155ZM56.5665 28.3865C57.6604 28.3865 58.6514 27.9136 59.5652 26.955C60.2988 26.1498 61.0195 24.974 61.7273 23.4019L62.3451 21.4848L62.6154 20.3217L62.7055 19.2609C62.7055 17.8294 62.1521 17.0754 61.0452 17.037C60.2344 17.037 59.3335 17.6633 58.3554 18.903C57.9564 19.5037 57.6991 19.9383 57.5575 20.1939L56.515 22.0216L55.5755 24.4244L55.3567 25.5364L55.2666 26.6099C55.2666 27.7347 55.7042 28.3354 56.5665 28.3865Z" fill="white"/>
</svg>
